<svg xmlns="http://www.w3.org/2000/svg" viewBox="0 0 300 160"><path d="M52.25,77.25c6.72,9.65,19.31,4.71,26.87-1.43,3.45-2.8,7.23-7.78,9.24-12.34,1.55-.56,3.16-1.2,4.81-1.9-1.27,9.4-.24,16.71,3.07,18.1,7.82,3.27,18.98-10.03,19.47-17.56,2.59-1.44,5.26-3.04,7.74-4.57,0,0,4.88-1.99,4.31-4.81-.63-3.12-4.99-1.59-4.99-1.59,0,0,6.42-6.62,10.54-3.92,2.42,1.59.95,8-4.38,10.75-5,2.57-8.68,6.06-10.22,9.89-2.93,7.3,4.16,12.22,14.52,5.52,2.4-1.55,5.77-3.64,9.52-6.04.48,3.8,2.09,6.56,4.96,7.19,8.51,1.87,28.82-26.25,28.82-26.25,0,0-6.6,18.9-11.27,23.28l11.86-.64s-1.19-.52.48-6.16c.59-2,1.4-4.3,2.3-6.67,2.02-.15,4.53-.18,6.99-.16-2.8,6.43-5.45,14.14-2.52,15.8,6.03,3.41,18.76-13.41,18.76-13.41,0,0-6.85,12.14-1.08,13.79,5.77,1.65,20.07-17.13,20.07-17.13,0,0-11.35,16.24-4.46,18.76,6.18,2.27,14.82-8.33,14.82-8.33,0,0-5,8,.08,10.52,5.19,2.58,20.27-15.14,20.27-15.14,0,0-11.57,17.12-3.05,19.87,6.53,2.1,22.11-10.93,19.53-13.11-.71-.6-3.14-1.05-3.94.08-2.66,3.75-7.19,9.39-9.35,8.77-3.85-1.1,4.8-21.02,11.82-25.22l-11.67-1.72s-.36,1.97-1.9,4.21c-4.13,6-12.28,16.07-14.56,15.09-2.75-1.17,11.51-21.28,11.51-21.28l-10.14-1.2s.24,2-.7,3.91c-3.11,6.32-13.7,19.13-15.59,18.18-2.22-1.11,9.25-22.65,12.15-24.4-3.88-.7-11.65-.93-11.65-.93,0,0,.35,1.57-.3,2.75-2.9,5.21-14.33,19.03-16.02,18.55-1.92-.55,8.77-21.5,11.87-22.44-4.54-.76-13.14-.65-13.14-.65,0,0,1.79,1.33,1.28,2.88-2.19,6.58-15.18,22.97-17.44,21.6-.95-.58.47-4.75,2.63-9.61,1.72.07,2.83.13,2.83.13l1.81-3.03c-.79-.13-1.89-.22-3.18-.27,2.8-5.86,6.12-11.81,7.39-13.27-3.16.15-10.26.37-10.26.37,0,0,.21,2.39-1.73,7-.35.83-1.47,3.05-2.77,5.84-2.7.04-5.32.12-7.19.18,2.96-7.44,6.3-14.63,6.3-14.63,0,0-6.74.65-10.32,1.16-1.97,5-19.04,27.03-23.61,25.08-1.7-.72-2.57-2.36-2.83-4.47,10.59-7.16,21.1-15.37,20.51-20.29-.9-7.62-18.56-4.25-24.39,7.14-2.72,5.3-4.14,11.09-4.12,15.83-4.17,2.85-8.67,5.25-13.16,6.62-3.1.94-3.06-6.19.38-9.88,4.57-4.91,14.01-8,12.94-14.43-1.36-8.19-23.83-2.29-24.93,6.74-.29,2.35,1.71,3.31,1.71,3.31,0,0-1.88.99-4.27,2.17-.45-.91-1.24-1.59-2.44-1.91-6.17-1.68-12.6,5.09-11.63,7.8.76,2.11,3.71,1.77,7.58.23-1.35,4.79-4.9,11.33-8.05,10.84-2.19-.35-1.46-8.58,1.32-18.9,2.9-1.48,5.86-3.11,8.81-4.87,22.29-13.29,45.14-33.67,29.39-38.49-8.67-2.65-26.67-5.01-40.04,23.77-3.16,6.81-5.33,13.99-6.5,20.44-1.42.7-2.82,1.33-4.19,1.89.97-4.01-.12-7.06-5.07-6.94-10.27.25-14.69,8.66-13.5,11.61.85,2.11,4.89,2.2,10.71.72-3.05,5.49-8.52,11.05-15.03,9.24-11.28-3.14-.97-27.82,16.74-32.76l-.11-3.58s-17.17,8.15-16.96-4.52c.21-12.67,23.66-35.78,34.21-29.78,6.88,3.91-3.88,14.36-3.88,14.36,0,0,5.83-9.05-1.67-8.85-5.5.14-10.52,8.68-9.14,11.16,5.44,9.81,29.99-11.09,19.63-19.45-7.73-6.23-49.49,8.75-50.02,35.66-.17,8.73,13.2,7.39,13.2,7.39,0,0-26.35,18.42-16.34,32.79ZM161.31,41.52c3.24.7-1.99,9.05-10.64,16.94,1.01-7.74,6.76-17.78,10.64-16.94ZM106.47,63.32s.58-2.33,1.78-2.63c.76-.19,1.09.43,1.09,1.52-1.16.51-2.17.91-2.87,1.11ZM132.3,15.04c11.41,2.01-8.17,24.2-28.88,37.67,5.64-18.16,16.67-39.82,28.88-37.67ZM80.15,62.82c-3.97.48.13-6.73,3.26-6.48,1.24.1,1.05,2.69-.2,5.92-1.05.25-2.08.44-3.06.56ZM273.32,38.54c10.69-5.89,13.75-14.76,12.34-16.86-.79-1.18-5.84-.86-7.91.56.66,1.64-1.13,9.42-7.79,14.05-5.75,3.99-11.65,3.04-11.65,3.04,0,0,8.49-2.89,4.53-7.57-3.07-3.62-13.09,1.34-11.12,6.25,1.52,3.77,11.96,5.84,21.6.53ZM101.49,131.74c4.11-9.1,12.41-32.8-4.87-32.7-3.55.02-8.84,3.74-10.84,5.61-3.06,2.85-3.45,5.5-3.08,6.83,1.09,3.88,6.78,3.1,9.84.25,1.53-1.43.89-3.33,1.31-5.03.42-1.69,2.82-4.66,4.44-4.7,3.16-.06,2.84,10.63-5.77,13.69-5.56,1.98-12.94,3-16.59,7.78-1.58,2.07-3.3,8.79-2.52,13.65-1.48,2.9-3.52,6.17-5.04,5.81-6.16-1.45,9.13-45.92,19.21-55.58-5.54.21-17.62,2.51-17.62,2.51,3.76,5.56-20.82,51.42-24.18,50.28-3.43-1.16,8.72-41.99,18.58-53.26-6.32.12-14.93,3.19-14.93,3.19,2.38,7.4-24.33,55.44-27.02,54.75-1.94-.49,4.26-19.3,5.97-23.21s19.03-34.94,6.9-36.45C23.41,83.68-1.97,104.23.12,120.21c1.32,10.07,12.24,3.68,14.91.78,2.46-2.67,5.27-5.95,6.53-9.64,1.7-4.98-3.72-5.51-5.91-3.8-9.45,7.34-3.84,10.32-3.84,10.32,0,0-1.19,3.85-2.71,3.29-2.88-1.06,2.22-13.67,5.48-18.49,5.29-7.81,13.22-13.91,15.56-13.05,3.04,1.12-2.73,14.81-8.68,26.5-5.95,11.69-18.41,38.58-9.28,43.52,8.21,4.45,25.89-32.62,25.89-32.62,0,0-9.35,26.86-2.3,29.56,7.21,2.75,26.57-35.33,26.57-35.33,0,0-10.6,29.27-3.32,31.83,4.42,1.55,11.55-6.99,15.62-12.56.86,1.24,2.16,1.99,4.03,1.92,7.61-.28,14.11-10.43,14.11-10.43,0,0-5.13,11.38,1.46,12.47,5.48.91,8.52-2.28,8.52-2.28,0,0-5.38-1.36-1.27-10.47ZM84.53,135.5c-4.85,1.08-1.32-10.07,2.96-13.2,3.42-2.5,8.69-3.85,11.36-6.74-1.27,4.63-9.46,18.86-14.31,19.94ZM151.9,128.73l-2.77.1s-3.09,2.56-4.5,1.51c-2.18-1.62-2.41-5.23-1.61-9.19,1.19-.03,2.2-.1,2.98-.2,11.6-1.55,15.75-11.05,15.06-15.22-.35-2.1-4.08-5.19-13.98-.61-5.05,2.33-9.04,7.93-11.02,13.62-.78-.06-1.56-.15-2.31-.25,2.35-5.55,2.12-10.6-2.82-11.85-3.07-.78-11.75.23-13.39,7.32-.61,2.62,3.2,4.42,8.29,5.57-2.59,6.51-7.28,13.14-9.4,12.16-4.92-2.27,2.75-33.46,14.32-38.98,9.1-4.35,17.26.6,31.35,2.52,13.23,1.8,24.94-10.27,21.97-13.96-2.79-3.47-12.57-.54-12.2,3.48.33,3.63,7.29,1.96,7.29,1.96-5.48,3.39-9.22,1.41-15.91-.66-6.69-2.07-16.44-4.62-31.61,2.38-20.31,9.37-29.82,42.81-22.21,46.52,7.91,3.86,18.53-5.33,23.29-14.31.9.1,1.8.18,2.69.25-1.41,5.5-.8,10.7,2.72,12.69,6.94,3.94,13.77-4.87,13.77-4.87ZM152.33,105.73c2.34.47-1.42,8.86-4.55,11.02-1.15.79-2.54,1.32-4.05,1.65,2-6.59,6.18-13.15,8.6-12.67ZM126.72,117.04c-1.05-.3-1.86-.57-2.32-.75-4.12-1.67,1.56-7.38,2.69-6.87.9,1.66.59,4.51-.37,7.62ZM288.9,127.74c4.73,3.05,13.61-5.71,10.43-9.23-5.13-5.67-16.47,5.57-19.49,9.06-1.35,1.56-2.72,2.71-3.84,3.5,1.81-4.16,3.73-8.03,4.95-10.42.8-1.55,2.17-1.87,2.17-1.87l-9.34-4.96c-.39,7.51-13.55,23.99-15.46,23.4-2.85-.9,8.27-22.57,11.21-24.24-3.08-.72-10.72-3.12-10.72-3.12,0,0,.19,2.23-.8,3.89-3.35,5.61-13.68,19.33-14.97,18.68-3-1.51,8.58-21.74,11.6-23.64-5.12-.71-13.44-.4-13.44-.4,0,0,1.44,1.34.45,3.23-3.68,7.02-14,20.77-15.87,19.78-.83-.44.95-5.1,3.57-10.5,1.04.12,2.05.28,3,.47,0,0,1.85-2.59.72-3.1-.36-.16-.98-.4-2.1-.6,3.09-5.94,6.75-11.95,8.88-13.79-4.79-.9-12.41.28-12.41.28,0,0,.58,2.05-.06,4.36-.23.83-2.25,4.43-4.41,8.82-2.14.08-4.73.26-7.84.58,3.48-7.95,7.33-15.09,7.33-15.09l-11.32.56c.63,2.88-1.36,9.19-3.85,15.49-1.46.2-3,.43-4.63.68-.73-3.91-4.54-5.26-7.47-4.92-2.71.31-6.42,2.71-8.01,5.63,4.36-9.93,10.78-20.86,14.19-23.26l-14.24,1.67s.79,2.18-.28,5.14c-3.88,10.71-15.79,26.54-17.37,26.59-3.97.13,8.19-25.58,10.74-27.29-4.76.29-15.55,1.53-15.55,1.53,0,0,3.04,1.12.12,6.37-3.34,6.02-9.77,18.04-17.35,26.37,0,0,.41-3.93-4.99-2.61-4.19,1.02-7.18,7.18-4.45,9.96,3.84,3.9,17.69-8.62,28.67-30.75-2.34,4.9-9.19,20.22-4.3,22.18,5.49,2.2,14.69-10.34,14.69-10.34,0,0-4.61,13.98,5.98,14.54,7.45.39,18.23-9.57,19.61-17.79.02-.13.04-.26.05-.39,1.11-.15,2.26-.29,3.42-.44-3.09,7.4-6.43,14.02-6.43,14.02l10-1.33c.36-3.49,2.08-8.5,4.15-13.5,2.56-.21,5.12-.36,7.6-.4-3.31,7.2-6.05,15.23-2.2,16.9,6.04,2.63,18.91-15.28,18.91-15.28,0,0-6.36,13.38-.3,16.06,5.89,2.61,18.21-17.14,18.21-17.14,0,0-9.94,19.61-4.25,21.8,4.98,1.92,16.3-12.58,16.3-12.58-.8,3.62-7.06,14.75-7.06,14.75l10.13,3.03c-.39-3.08,1.34-8.56,3.55-13.99,1.31-.71,3.1-1.21,4.85-.19,3.37,1.96-1.66,19.69,5.94,23.01,4.72,2.06,11.8-4.05,10.01-5.82-1.74-1.73-4.12,3.79-4.81.68-1.07-4.88-1.91-15.7-4.71-19.17-1.6-1.99-5.45-2.08-5.45-2.08,3.29-3.71,8.39-7.14,8.39-7.14,0,0-2.28,2.94-.06,4.36ZM183.83,137.65c-2.59-.75-.66-7.99,2.84-16.2-.19.59-.29,1.19-.27,1.79.03.9,3.12.68,7.83.08-2.27,6.3-7.4,15.19-10.4,14.32ZM195.02,120.83c-1.07.19-2.17.38-3.3.59,0,0,1.36-4.77,3.18-4.03.62.25.59,1.58.11,3.44Z"/></svg>
