<?xml version="1.0" standalone="no"?>
<!DOCTYPE svg PUBLIC "-//W3C//DTD SVG 20010904//EN"
 "http://www.w3.org/TR/2001/REC-SVG-20010904/DTD/svg10.dtd">
<svg version="1.0" xmlns="http://www.w3.org/2000/svg"
 width="700.000000pt" height="700.000000pt" viewBox="0 0 700.000000 700.000000"
 preserveAspectRatio="xMidYMid meet">
<metadata>
Created by potrace 1.14, written by Peter Selinger 2001-2017
</metadata>
<g transform="translate(0.000000,700.000000) scale(0.100000,-0.100000)"
fill="#000000" stroke="none">
<path d="M175 6228 l0 -663 372 -1 c205 0 376 -4 380 -8 4 -3 7 -931 7 -2061
1 -1820 -1 -2055 -14 -2056 -8 0 -178 -1 -377 -1 -200 -1 -364 -4 -364 -7 -1
-3 -2 -302 -3 -664 l-1 -657 3320 2 3319 3 1 645 c0 355 -1 652 -3 661 -3 14
-44 16 -373 16 -203 0 -372 3 -377 7 -4 4 -7 932 -7 2061 0 1818 2 2054 15
2057 8 2 178 3 378 2 199 0 362 2 363 5 3 18 4 1298 1 1309 -3 9 -230 12
-1092 12 l-1088 0 0 -659 c-1 -509 1 -660 11 -664 7 -2 177 -4 380 -3 l367 1
0 -2065 0 -2065 -810 1 c-446 0 -813 3 -816 7 -3 3 3 34 15 69 36 108 85 313
110 463 6 33 13 73 15 89 13 76 21 205 21 341 0 184 -9 257 -51 415 -53 199
-154 424 -324 725 -165 291 -188 344 -205 475 -7 50 -8 244 -1 275 2 11 7 49
11 84 4 36 10 74 15 85 6 19 8 17 15 -12 15 -69 54 -181 85 -243 139 -277 348
-390 613 -334 181 38 290 152 348 361 24 90 35 330 19 444 -20 140 -80 313
-148 425 -87 143 -245 253 -407 282 -111 20 -234 23 -340 9 -73 -10 -93 -15
-167 -43 -209 -77 -362 -256 -453 -529 -14 -45 -28 -88 -29 -95 -1 -8 -8 -39
-14 -69 -31 -147 -37 -228 -37 -480 0 -296 16 -435 75 -641 29 -103 49 -160
150 -434 100 -271 151 -460 178 -661 12 -92 6 -395 -13 -584 -2 -25 -7 -74
-10 -110 -27 -288 -28 -300 -42 -308 -14 -9 -1581 -7 -1589 1 -12 12 -8 4108
4 4115 5 4 176 7 379 6 l369 -1 0 664 0 663 -1091 0 -1090 0 0 -662z"/>
</g>
</svg>
