<?xml version="1.0" standalone="no"?>
<!DOCTYPE svg PUBLIC "-//W3C//DTD SVG 20010904//EN"
 "http://www.w3.org/TR/2001/REC-SVG-20010904/DTD/svg10.dtd">
<svg version="1.0" xmlns="http://www.w3.org/2000/svg"
 width="700.000000pt" height="700.000000pt" viewBox="0 0 700.000000 700.000000"
 preserveAspectRatio="xMidYMid meet">
<metadata>
Created by potrace 1.14, written by Peter Selinger 2001-2017
</metadata>
<g transform="translate(0.000000,700.000000) scale(0.100000,-0.100000)"
fill="#000000" stroke="none">
<path d="M120 5422 c-6 -2 -10 -133 -10 -376 l0 -371 213 0 212 -1 0 -1164 0
-1165 -205 -2 c-113 -1 -208 -2 -212 -2 -5 -1 -8 -170 -8 -376 l0 -374 1166 2
1166 2 40 105 c21 58 40 110 42 115 2 6 6 17 9 25 14 32 267 722 267 726 0 2
-47 4 -105 4 l-106 0 -74 -114 -74 -113 -763 1 -763 1 -2 270 c-1 302 -1 302
79 495 135 324 305 545 482 626 31 14 59 24 61 23 1 -2 -8 -27 -21 -55 -33
-72 -43 -127 -41 -219 3 -100 35 -173 110 -246 57 -56 101 -72 191 -70 300 6
513 264 508 615 -5 311 -243 506 -537 439 -270 -61 -548 -277 -789 -610 -21
-29 -39 -53 -40 -53 -3 0 0 1089 2 1105 2 10 1516 15 1525 5 3 -3 35 -52 72
-110 37 -58 69 -107 71 -109 6 -7 205 -7 210 0 2 3 -5 28 -15 55 -10 27 -53
144 -95 259 -85 231 -117 315 -146 390 -11 28 -20 54 -20 59 0 4 -6 22 -14 39
-8 18 -25 61 -37 97 -12 36 -24 67 -27 70 -4 5 -2306 7 -2322 2z"/>
<path d="M3144 5418 c-4 -6 -7 -413 -5 -664 l1 -80 213 0 212 1 1 -1167 1
-1166 -209 1 c-114 0 -211 -2 -214 -5 -4 -5 -7 -369 -5 -670 l1 -77 1875 0
1875 0 0 374 c0 350 -1 375 -17 376 -10 0 -106 1 -213 2 l-195 2 0 1165 0
1165 213 -1 212 -1 0 376 0 376 -609 0 c-335 0 -613 -3 -616 -7 -6 -5 -10
-619 -6 -724 1 -20 6 -20 207 -20 113 1 209 -1 213 -4 4 -3 8 -528 7 -1166 l0
-1162 -458 1 c-329 0 -458 3 -458 11 0 6 9 42 19 79 11 38 27 103 35 145 9 42
18 91 21 107 12 56 14 290 4 350 -21 123 -89 296 -184 465 -129 229 -136 249
-137 370 0 92 11 185 21 173 4 -4 13 -28 20 -53 37 -128 130 -237 226 -265 41
-12 73 -15 114 -10 115 14 179 64 222 172 20 50 23 76 23 188 1 139 -15 208
-69 315 -84 165 -282 233 -509 174 -116 -29 -226 -151 -275 -304 -41 -126 -46
-170 -46 -375 1 -204 14 -287 72 -450 91 -256 123 -356 139 -435 26 -130 23
-319 -12 -611 l-6 -47 -451 2 -452 1 0 1165 0 1165 213 -1 212 0 -2 375 -3
376 -608 0 c-335 0 -611 -3 -613 -7z"/>
</g>
</svg>
