<svg xmlns="http://www.w3.org/2000/svg" width="320" height="320" fill="none" viewBox="0 0 320 320"><path fill="#E24C4C" d="M8 315H311.497V254.301H8V315Z"/><path fill="#E24C4C" d="M8 65.6993H107.72V5H8V65.6993Z"/><path fill="#E24C4C" d="M211.776 65.6993H311.497V5H211.776V65.6993Z"/><path fill="#E24C4C" d="M42.6853 50.5245H73.035V297.657H42.6853V50.5245Z"/><path fill="#E24C4C" d="M246.462 50.5245H276.811V297.657H246.462V50.5245Z"/><path fill="#E24C4C" d="M148.909 207.692C150.813 221.018 145.656 260.804 145.656 260.804H169.503C169.503 260.804 181.996 228.287 179.258 202.272C176.52 176.258 157.755 152.94 154.328 142.657C150.354 130.734 154.328 114.475 154.328 114.475C154.328 114.475 159.748 149.702 187.929 142.657C207.44 137.779 204.841 108.702 202.021 99.3007C198.769 88.4615 192.265 70.0351 162.999 73.2867C123.978 77.6221 128.892 137.53 132.649 153.496C136.986 171.923 145.656 184.93 148.909 207.692Z"/></svg>
